<svg width="197" height="50" viewBox="0 0 197 50" fill="none" xmlns="http://www.w3.org/2000/svg">
<path d="M66.9932 31.4336C66.9932 31.0527 66.9248 30.6963 66.7881 30.3643C66.6611 30.0322 66.4414 29.7197 66.1289 29.4268C65.8066 29.1436 65.3867 28.8848 64.8691 28.6504C64.3613 28.4062 63.7266 28.1816 62.9648 27.9766C61.7832 27.6543 60.7432 27.2637 59.8447 26.8047C58.9561 26.3457 58.2285 25.8428 57.6621 25.2959C57.0957 24.749 56.666 24.1436 56.373 23.4795C56.0898 22.8154 55.9482 22.0928 55.9482 21.3115C55.9482 20.4131 56.1387 19.5977 56.5195 18.8652C56.9004 18.1328 57.4277 17.5078 58.1016 16.9902C58.7754 16.4727 59.5713 16.0771 60.4893 15.8037C61.4072 15.5205 62.4033 15.3789 63.4775 15.3789C64.5908 15.3789 65.6064 15.54 66.5244 15.8623C67.4521 16.1846 68.248 16.6338 68.9121 17.21C69.5762 17.7959 70.0938 18.4893 70.4648 19.29C70.8359 20.0908 71.0215 20.9697 71.0215 21.9268H67.0078C66.9883 21.4482 66.9004 21.0088 66.7441 20.6084C66.5977 20.208 66.3779 19.8613 66.085 19.5684C65.7822 19.2852 65.4062 19.0654 64.957 18.9092C64.5176 18.7432 64 18.6602 63.4043 18.6602C62.8574 18.6602 62.3691 18.7285 61.9395 18.8652C61.5195 18.9922 61.1631 19.1729 60.8701 19.4072C60.5771 19.6514 60.3525 19.9395 60.1963 20.2715C60.0498 20.5938 59.9766 20.9453 59.9766 21.3262C59.9766 21.7266 60.0742 22.0879 60.2695 22.4102C60.4746 22.7324 60.7676 23.0205 61.1484 23.2744C61.5293 23.5381 61.9883 23.7773 62.5254 23.9922C63.0723 24.207 63.6875 24.4072 64.3711 24.5928C65.1035 24.7979 65.8018 25.0469 66.4658 25.3398C67.1299 25.6328 67.7402 25.9697 68.2969 26.3506C69.1367 26.9756 69.8057 27.7031 70.3037 28.5332C70.8018 29.3633 71.0508 30.3203 71.0508 31.4043C71.0508 32.3418 70.8604 33.1768 70.4795 33.9092C70.1084 34.6318 69.5908 35.2422 68.9268 35.7402C68.2627 36.248 67.4717 36.6338 66.5537 36.8975C65.6357 37.1514 64.6348 37.2783 63.5508 37.2783C62.4863 37.2783 61.4316 37.1221 60.3867 36.8096C59.3516 36.4873 58.4482 36.0186 57.6768 35.4033C56.9443 34.7979 56.3633 34.085 55.9336 33.2646C55.5137 32.4443 55.3037 31.4824 55.3037 30.3789H59.3467C59.3662 31.0234 59.4785 31.5752 59.6836 32.0342C59.8887 32.4932 60.1768 32.8691 60.5479 33.1621C60.9092 33.4551 61.3438 33.6699 61.8516 33.8066C62.3691 33.9434 62.9355 34.0117 63.5508 34.0117C64.0977 34.0117 64.5811 33.9482 65.001 33.8213C65.4307 33.6943 65.792 33.5186 66.085 33.2939C66.3779 33.0693 66.6025 32.8008 66.7588 32.4883C66.915 32.166 66.9932 31.8145 66.9932 31.4336ZM84.4248 37L84.1904 34.7734C83.6533 35.5645 83.0039 36.1846 82.2422 36.6338C81.4902 37.083 80.665 37.3076 79.7666 37.3076C78.9463 37.3076 78.1943 37.1807 77.5107 36.9268C76.8271 36.6729 76.2412 36.2676 75.7529 35.7109C75.2646 35.1641 74.8838 34.4658 74.6104 33.6162C74.3467 32.7568 74.2148 31.7266 74.2148 30.5254V21.1504H78.2871V30.5547C78.2871 31.1992 78.3311 31.7412 78.4189 32.1807C78.5166 32.6201 78.668 32.9717 78.873 33.2354C79.0781 33.5088 79.3467 33.7041 79.6787 33.8213C80.0107 33.9385 80.416 33.9971 80.8945 33.9971C81.3242 33.9971 81.71 33.9531 82.0518 33.8652C82.4033 33.7773 82.7109 33.6504 82.9746 33.4844C83.1992 33.3379 83.3994 33.1621 83.5752 32.957C83.751 32.752 83.9023 32.5225 84.0293 32.2686V21.1504H88.1162V37H84.4248ZM94.6348 21.1504L94.752 23.0693C95.0547 22.3857 95.4697 21.8486 95.9971 21.458C96.5342 21.0576 97.1836 20.8574 97.9453 20.8574C98.3164 20.8574 98.6484 20.9014 98.9414 20.9893C99.2344 21.0771 99.4883 21.2139 99.7031 21.3994C99.8691 21.5361 100.011 21.7021 100.128 21.8975C100.255 22.083 100.362 22.2979 100.45 22.542C100.587 22.3076 100.738 22.0977 100.904 21.9121C101.08 21.7168 101.271 21.5508 101.476 21.4141C101.729 21.2383 102.018 21.1016 102.34 21.0039C102.662 20.9062 103.014 20.8574 103.395 20.8574C103.873 20.8574 104.317 20.9453 104.728 21.1211C105.147 21.2969 105.514 21.5752 105.826 21.9561C106.129 22.3467 106.363 22.8496 106.529 23.4648C106.705 24.0703 106.793 24.8125 106.793 25.6914V37H103.087V25.6768C103.087 25.374 103.053 25.125 102.984 24.9297C102.926 24.7344 102.843 24.5781 102.735 24.4609C102.628 24.3535 102.501 24.2803 102.354 24.2412C102.218 24.1924 102.076 24.168 101.93 24.168C101.773 24.168 101.632 24.1875 101.505 24.2266C101.388 24.2656 101.275 24.3193 101.168 24.3877C101.08 24.4561 101.002 24.5342 100.934 24.6221C100.865 24.7002 100.807 24.793 100.758 24.9004C100.758 24.9199 100.758 24.9639 100.758 25.0322C100.758 25.1006 100.758 25.1934 100.758 25.3105V37H97.1689V25.6621C97.1689 25.3594 97.1396 25.1104 97.0811 24.915C97.0225 24.7197 96.9443 24.5684 96.8467 24.4609C96.7393 24.3535 96.6172 24.2803 96.4805 24.2412C96.3438 24.1924 96.1973 24.168 96.041 24.168C95.8652 24.168 95.709 24.1973 95.5723 24.2559C95.4355 24.3145 95.3135 24.3975 95.2061 24.5049C95.1279 24.583 95.0596 24.6758 95.001 24.7832C94.9424 24.8906 94.8887 25.0078 94.8398 25.1348V37H91.1338V21.1504H94.6348ZM120.021 37C119.923 36.8047 119.84 36.5801 119.771 36.3262C119.703 36.0723 119.645 35.8037 119.596 35.5205C119.371 35.7646 119.112 35.9941 118.819 36.209C118.526 36.4238 118.204 36.6094 117.853 36.7656C117.491 36.9316 117.096 37.0586 116.666 37.1465C116.236 37.2441 115.772 37.293 115.274 37.293C114.464 37.293 113.717 37.1758 113.033 36.9414C112.359 36.707 111.778 36.3799 111.29 35.96C110.802 35.54 110.421 35.042 110.147 34.4658C109.874 33.8799 109.737 33.2451 109.737 32.5615C109.737 31.6826 109.908 30.9062 110.25 30.2324C110.592 29.5488 111.104 28.9873 111.788 28.5479C112.403 28.1475 113.16 27.8447 114.059 27.6396C114.967 27.4248 116.007 27.3174 117.179 27.3174H119.449V26.3799C119.449 26.0088 119.391 25.6768 119.273 25.3838C119.156 25.0811 118.98 24.8223 118.746 24.6074C118.502 24.3828 118.194 24.2119 117.823 24.0947C117.462 23.9678 117.037 23.9043 116.549 23.9043C116.119 23.9043 115.748 23.958 115.436 24.0654C115.123 24.1631 114.869 24.3047 114.674 24.4902C114.498 24.6562 114.366 24.8564 114.278 25.0908C114.2 25.3252 114.161 25.584 114.161 25.8672H110.089C110.089 25.1934 110.235 24.5537 110.528 23.9482C110.831 23.3428 111.271 22.8105 111.847 22.3516C112.413 21.8926 113.106 21.5312 113.927 21.2676C114.757 20.9941 115.704 20.8574 116.769 20.8574C117.726 20.8574 118.614 20.9746 119.435 21.209C120.265 21.4434 120.982 21.79 121.588 22.249C122.193 22.708 122.667 23.2891 123.009 23.9922C123.351 24.6855 123.521 25.4912 123.521 26.4092V33.2061C123.521 34.0557 123.575 34.7588 123.683 35.3154C123.79 35.8721 123.946 36.3506 124.151 36.751V37H120.021ZM116.139 34.1436C116.549 34.1436 116.93 34.0947 117.281 33.9971C117.633 33.8994 117.95 33.7725 118.233 33.6162C118.517 33.46 118.761 33.2842 118.966 33.0889C119.171 32.8838 119.332 32.6787 119.449 32.4736V29.749H117.369C116.734 29.749 116.192 29.8125 115.743 29.9395C115.294 30.0566 114.928 30.2227 114.645 30.4375C114.361 30.6621 114.151 30.9307 114.015 31.2432C113.878 31.5459 113.81 31.8779 113.81 32.2393C113.81 32.5225 113.858 32.7861 113.956 33.0303C114.063 33.2646 114.215 33.4648 114.41 33.6309C114.605 33.7871 114.845 33.9141 115.128 34.0117C115.421 34.0996 115.758 34.1436 116.139 34.1436ZM129.22 21.1504H137.848V33.6895H142.14V37H129.22V33.6895H133.731V24.4756H129.22V21.1504ZM133.438 17.0928C133.438 16.7803 133.492 16.4922 133.6 16.2285C133.717 15.9551 133.878 15.7207 134.083 15.5254C134.288 15.3398 134.532 15.1934 134.815 15.0859C135.108 14.9785 135.431 14.9248 135.782 14.9248C136.505 14.9248 137.076 15.1299 137.496 15.54C137.926 15.9404 138.141 16.458 138.141 17.0928C138.141 17.7275 137.926 18.25 137.496 18.6602C137.076 19.0605 136.505 19.2607 135.782 19.2607C135.431 19.2607 135.108 19.207 134.815 19.0996C134.532 18.9922 134.288 18.8408 134.083 18.6455C133.878 18.46 133.717 18.2354 133.6 17.9717C133.492 17.6982 133.438 17.4053 133.438 17.0928ZM151.383 33.7334H160.714V37H145.816V34.4805L154.693 24.4609H146.021V21.1504H160.348V23.5967L151.383 33.7334ZM171.861 37.293C170.641 37.293 169.532 37.0928 168.536 36.6924C167.54 36.292 166.686 35.7451 165.973 35.0518C165.26 34.3682 164.708 33.5625 164.317 32.6348C163.937 31.6973 163.746 30.6963 163.746 29.6318V29.0459C163.746 27.835 163.937 26.7314 164.317 25.7354C164.698 24.7295 165.23 23.8652 165.914 23.1426C166.598 22.4199 167.408 21.8584 168.346 21.458C169.283 21.0576 170.304 20.8574 171.407 20.8574C172.55 20.8574 173.565 21.0479 174.454 21.4287C175.353 21.7998 176.114 22.3271 176.739 23.0107C177.354 23.6943 177.823 24.5195 178.146 25.4863C178.468 26.4434 178.629 27.5029 178.629 28.665V30.3936H167.877V30.4375C168.014 31.0723 168.189 31.585 168.404 31.9756C168.619 32.3564 168.907 32.7031 169.269 33.0156C169.64 33.3379 170.064 33.5869 170.543 33.7627C171.021 33.9385 171.544 34.0264 172.11 34.0264C172.911 34.0264 173.688 33.875 174.439 33.5723C175.191 33.2695 175.802 32.8154 176.271 32.21L178.307 34.4072C177.789 35.1396 176.969 35.8037 175.846 36.3994C174.723 36.9951 173.395 37.293 171.861 37.293ZM171.378 24.1533C170.919 24.1533 170.499 24.2363 170.118 24.4023C169.737 24.5586 169.405 24.7881 169.122 25.0908C168.829 25.3936 168.585 25.7549 168.39 26.1748C168.194 26.5947 168.048 27.0635 167.95 27.5811H174.63V27.2588C174.63 26.8291 174.552 26.4238 174.396 26.043C174.239 25.6621 174.024 25.3301 173.751 25.0469C173.478 24.7734 173.141 24.5586 172.74 24.4023C172.35 24.2363 171.896 24.1533 171.378 24.1533ZM193.57 20.8574C194.186 20.8574 194.752 20.9014 195.27 20.9893C195.797 21.0674 196.222 21.1553 196.544 21.2529L195.943 25.3105C195.406 25.1836 194.854 25.0908 194.288 25.0322C193.731 24.9639 193.199 24.9297 192.691 24.9297C192.164 24.9297 191.686 24.9785 191.256 25.0762C190.836 25.1641 190.46 25.3008 190.128 25.4863C189.728 25.7012 189.386 25.9746 189.103 26.3066C188.819 26.6387 188.585 27.0293 188.399 27.4785V37H184.327V21.1504H188.121L188.282 23.3916L188.312 23.7432C188.956 22.8447 189.728 22.1416 190.626 21.6338C191.524 21.1162 192.506 20.8574 193.57 20.8574Z" fill="black"/>
<path d="M33.3306 9.71877V11.6854L30.5076 13.2771V9.94794C30.5087 8.74101 30.0209 7.58305 29.1514 6.72864C28.2819 5.87424 27.1019 5.39334 25.8708 5.39169H25.1387C24.5285 5.39169 23.9242 5.50955 23.3604 5.73853C22.7966 5.96752 22.2844 6.30315 21.8529 6.72625C21.4215 7.14935 21.0792 7.65163 20.8458 8.20441C20.6124 8.7572 20.4923 9.34965 20.4924 9.94794V21.3594C20.4924 21.8906 20.2056 22.3792 19.7274 22.649L15.5699 25L12.7266 23.3875L16.4826 21.2656C16.8432 21.0605 17.1427 20.7663 17.3512 20.4122C17.5596 20.0582 17.6697 19.6567 17.6704 19.2479V9.72919C17.6716 7.83986 18.4376 6.02823 19.8003 4.69227C21.163 3.35631 23.0108 2.60529 24.9379 2.60419H26.0748C27.0279 2.60378 27.9718 2.78752 28.8524 3.14492C29.733 3.50231 30.5332 4.02635 31.2071 4.68708C31.8811 5.34782 32.4156 6.13229 32.7801 6.99565C33.1447 7.85902 33.331 8.78435 33.3306 9.71877ZM30.5076 33.5615V36.7229L26.6879 34.5594C26.325 34.3601 25.916 34.2555 25.5 34.2555C25.084 34.2555 24.675 34.3601 24.3121 34.5594L20.4924 36.7229L17.6694 38.3146L15.9088 39.3136C14.2412 40.2573 12.2596 40.5135 10.3995 40.0258C8.53933 39.5381 6.95273 38.3464 5.98825 36.7125L5.70137 36.2229L5.4145 35.7459C4.93715 34.936 4.62737 34.0418 4.50291 33.1144C4.37844 32.187 4.44172 31.2447 4.68913 30.3413C4.93654 29.4379 5.36322 28.5912 5.94475 27.8497C6.52629 27.1082 7.25126 26.4864 8.07819 26.0198L9.88125 24.999L12.7256 26.6125L9.64856 28.35C9.11945 28.6481 8.65547 29.0455 8.28317 29.5195C7.91087 29.9936 7.63756 30.5349 7.47887 31.1126C7.32019 31.6903 7.27924 32.293 7.35838 32.8862C7.43751 33.4795 7.63518 34.0516 7.94006 34.5698L8.30131 35.1844C8.60634 35.7035 9.01271 36.1586 9.4972 36.5237C9.98169 36.8888 10.5348 37.1567 11.125 37.3122C11.7151 37.4676 12.3307 37.5076 12.9366 37.4297C13.5425 37.3518 14.1268 37.1577 14.6561 36.8584L17.6694 35.1521L20.4924 33.55L24.7361 31.1479L24.7467 31.1584C25.2142 30.8875 25.7869 30.8875 26.2533 31.1584H26.2639L30.5076 33.5615Z" stroke="black" stroke-linecap="round" stroke-linejoin="round"/>
<path d="M17.6694 30.7521V35.1521L14.6561 36.8583C14.1267 37.1576 13.5424 37.3517 12.9364 37.4295C12.3305 37.5073 11.7149 37.4673 11.1247 37.3117C10.5346 37.1562 9.98146 36.8881 9.49701 36.5229C9.01256 36.1577 8.60625 35.7025 8.30131 35.1833L7.94006 34.5698C7.63518 34.0515 7.43751 33.4794 7.35838 32.8862C7.27924 32.293 7.32019 31.6903 7.47887 31.1126C7.63756 30.5349 7.91087 29.9935 8.28317 29.5195C8.65547 29.0455 9.11945 28.6481 9.64856 28.35L12.7256 26.6125L16.4815 28.7448C16.8418 28.9477 17.1413 29.24 17.3499 29.5923C17.5584 29.9447 17.6686 30.3447 17.6694 30.7521M43.0493 34.5802L42.6881 35.2052C42.0685 36.2473 41.0531 37.0063 39.8641 37.3161C38.6751 37.6259 37.4094 37.4613 36.3439 36.8583L33.3306 35.1521V30.7521C33.3306 29.9198 33.7875 29.1604 34.5185 28.7448L38.2744 26.6125L41.3514 28.35C41.8804 28.6495 42.3441 29.0483 42.7157 29.5237C43.0874 29.999 43.3599 30.5414 43.5176 31.1201C43.6753 31.6987 43.7151 32.3021 43.6347 32.8958C43.5544 33.4895 43.3554 34.0619 43.0493 34.5802M24.3121 15.4406L20.4924 13.2771V9.94791C20.4923 9.34963 20.6124 8.75717 20.8458 8.20439C21.0792 7.65161 21.4215 7.14932 21.8529 6.72622C22.2844 6.30312 22.7967 5.96749 23.3604 5.73851C23.9242 5.50952 24.5285 5.39166 25.1387 5.39166H25.8719C27.1028 5.3936 28.2825 5.87461 29.1518 6.72899C30.021 7.58336 30.5087 8.74117 30.5076 9.94791V13.2771L26.6879 15.4406C25.9558 15.8573 25.0442 15.8573 24.3111 15.4406H24.3121ZM35.4312 25L31.2715 27.351C30.7944 27.6219 30.5076 28.1104 30.5076 28.6406V33.5615L26.2639 31.1583H26.2533C25.7858 30.8875 25.2131 30.8875 24.7467 31.1583L24.7361 31.1479L20.4924 33.551V28.6406C20.4924 28.1094 20.2056 27.6219 19.7274 27.351L15.5699 25L19.7296 22.649C20.2077 22.3781 20.4935 21.8896 20.4935 21.3594V16.4479L24.7371 18.851L24.7477 18.8406C25.2152 19.1115 25.7879 19.1115 26.2544 18.8406L26.265 18.851L30.5086 16.4479V21.3583C30.5086 21.8896 30.7955 22.3781 31.2736 22.6479L35.4312 25Z" stroke="black" stroke-linecap="round" stroke-linejoin="round"/>
<path d="M17.6694 30.7521V35.1521L14.6561 36.8583C14.1267 37.1576 13.5424 37.3517 12.9364 37.4295C12.3305 37.5073 11.7149 37.4673 11.1247 37.3117C10.5346 37.1562 9.98146 36.8881 9.49701 36.5229C9.01256 36.1577 8.60625 35.7025 8.30131 35.1833L7.94006 34.5698C7.63518 34.0515 7.43751 33.4794 7.35838 32.8862C7.27924 32.293 7.32019 31.6903 7.47887 31.1126C7.63756 30.5349 7.91087 29.9935 8.28317 29.5195C8.65547 29.0455 9.11945 28.6481 9.64856 28.35L12.7256 26.6125L16.4815 28.7448C16.8418 28.9477 17.1413 29.24 17.3499 29.5923C17.5584 29.9447 17.6686 30.3447 17.6694 30.7521M43.0493 34.5802L42.6881 35.2052C42.0685 36.2473 41.0531 37.0063 39.8641 37.3161C38.6751 37.6259 37.4094 37.4613 36.3439 36.8583L33.3306 35.1521V30.7521C33.3306 29.9198 33.7875 29.1604 34.5185 28.7448L38.2744 26.6125L41.3514 28.35C41.8804 28.6495 42.3441 29.0483 42.7157 29.5237C43.0874 29.999 43.3599 30.5414 43.5176 31.1201C43.6753 31.6987 43.7151 32.3021 43.6347 32.8958C43.5544 33.4895 43.3554 34.0619 43.0493 34.5802M24.3121 15.4406L20.4924 13.2771V9.94791C20.4923 9.34963 20.6124 8.75717 20.8458 8.20439C21.0792 7.65161 21.4215 7.14932 21.8529 6.72622C22.2844 6.30312 22.7967 5.96749 23.3604 5.73851C23.9242 5.50952 24.5285 5.39166 25.1387 5.39166H25.8719C27.1028 5.3936 28.2825 5.87461 29.1518 6.72899C30.021 7.58336 30.5087 8.74117 30.5076 9.94791V13.2771L26.6879 15.4406C25.9558 15.8573 25.0442 15.8573 24.3111 15.4406H24.3121ZM35.4312 25L31.2715 27.351C30.7944 27.6219 30.5076 28.1104 30.5076 28.6406V33.5615L26.2639 31.1583H26.2533C25.7858 30.8875 25.2131 30.8875 24.7467 31.1583L24.7361 31.1479L20.4924 33.551V28.6406C20.4924 28.1094 20.2056 27.6219 19.7274 27.351L15.5699 25L19.7296 22.649C20.2077 22.3781 20.4935 21.8896 20.4935 21.3594V16.4479L24.7371 18.851L24.7477 18.8406C25.2152 19.1115 25.7879 19.1115 26.2544 18.8406L26.265 18.851L30.5086 16.4479V21.3583C30.5086 21.8896 30.7955 22.3781 31.2736 22.6479L35.4312 25Z" stroke="black" stroke-linecap="round" stroke-linejoin="round"/>
<path d="M20.4924 28.6406V33.5511L17.6694 35.1521V30.7521C17.6694 29.9198 17.2125 29.1604 16.4815 28.7448L12.7256 26.6125L9.88125 25L8.07713 23.9802C7.25043 23.5136 6.52568 22.8917 5.94435 22.1503C5.36301 21.4088 4.93649 20.5622 4.68919 19.6589C4.44189 18.7557 4.37866 17.8135 4.50311 16.8863C4.62757 15.9591 4.93727 15.065 5.4145 14.2552L5.70138 13.7761L5.98719 13.2865C6.95184 11.6528 8.53853 10.4613 10.3987 9.97377C12.2588 9.48626 14.2403 9.7426 15.9078 10.6865L17.6683 11.6854V14.8479L14.6551 13.1417C14.1257 12.8424 13.5413 12.6483 12.9354 12.5705C12.3294 12.4927 11.7138 12.5327 11.1237 12.6883C10.5335 12.8438 9.9804 13.1119 9.49595 13.4771C9.0115 13.8423 8.60519 14.2975 8.30025 14.8167L7.939 15.4302C7.63412 15.9485 7.43645 16.5206 7.35732 17.1138C7.27818 17.707 7.31913 18.3097 7.47781 18.8874C7.6365 19.4651 7.90981 20.0065 8.28211 20.4805C8.65441 20.9545 9.11839 21.3519 9.6475 21.65L12.7245 23.3875L15.5688 25L19.7285 27.3511C20.2066 27.6219 20.4924 28.1104 20.4924 28.6406Z" stroke="black" stroke-linecap="round" stroke-linejoin="round"/>
<path d="M16.4815 21.2656L12.7256 23.3875L9.64856 21.65C9.11945 21.3519 8.65547 20.9545 8.28317 20.4805C7.91087 20.0064 7.63756 19.4651 7.47887 18.8874C7.32019 18.3097 7.27924 17.707 7.35838 17.1138C7.43751 16.5206 7.63518 15.9485 7.94006 15.4302L8.30131 14.8156C8.60634 14.2965 9.01271 13.8414 9.4972 13.4763C9.98169 13.1112 10.5348 12.8433 11.125 12.6878C11.7151 12.5324 12.3307 12.4924 12.9366 12.5703C13.5425 12.6482 14.1268 12.8423 14.6561 13.1417L17.6694 14.8479V19.2479C17.6694 20.0802 17.2125 20.849 16.4815 21.2656ZM38.2744 26.6125L34.5185 28.7448C34.1582 28.9476 33.8587 29.24 33.6501 29.5923C33.4416 29.9447 33.3314 30.3447 33.3306 30.7521V40.2802C33.3312 41.2147 33.1439 42.1402 32.7794 43.0036C32.4149 43.8671 31.8804 44.6517 31.2064 45.3126C30.5325 45.9734 29.7323 46.4975 28.8516 46.855C27.9709 47.2125 27.0269 47.3962 26.0737 47.3958H24.9369C23.0098 47.3947 21.1619 46.6437 19.7992 45.3077C18.4365 43.9718 17.6705 42.1602 17.6694 40.2708V38.3146L20.4924 36.7229V40.0521C20.4923 40.6505 20.6124 41.243 20.8459 41.7958C21.0794 42.3487 21.4217 42.851 21.8533 43.2741C22.2849 43.6973 22.7973 44.0329 23.3612 44.2618C23.9251 44.4907 24.5295 44.6085 25.1398 44.6083H25.8719C27.1028 44.6064 28.2825 44.1254 29.1518 43.271C30.021 42.4166 30.5087 41.2588 30.5076 40.0521V28.6406C30.5076 28.1094 30.7944 27.6219 31.2726 27.351L35.4301 25L38.2744 26.6125Z" stroke="black" stroke-linecap="round" stroke-linejoin="round"/>
<path d="M26.6879 34.5594L30.5076 36.7229V40.0521C30.5087 41.259 30.0209 42.417 29.1514 43.2714C28.2819 44.1258 27.1019 44.6067 25.8708 44.6083H25.1388C24.5285 44.6083 23.9242 44.4905 23.3604 44.2615C22.7967 44.0325 22.2844 43.6969 21.8529 43.2738C21.4215 42.8507 21.0792 42.3484 20.8458 41.7956C20.6124 41.2428 20.4923 40.6504 20.4924 40.0521V36.7229L24.3121 34.5594C24.6752 34.3599 25.0844 34.2552 25.5005 34.2552C25.9167 34.2552 26.3248 34.3599 26.6879 34.5594ZM42.9218 23.9802L41.1188 25L38.2744 23.3875L41.3514 21.65C41.8804 21.3505 42.3441 20.9516 42.7157 20.4763C43.0874 20.001 43.3599 19.4585 43.5176 18.8799C43.6753 18.3013 43.7151 17.6979 43.6347 17.1042C43.5544 16.5104 43.3554 15.9381 43.0493 15.4198L42.6881 14.8052C42.0715 13.7601 41.0569 12.9978 39.8672 12.6859C38.6776 12.3739 37.4103 12.5379 36.3439 13.1417L33.3306 14.8479L30.5076 16.45L26.2639 18.8521L26.2533 18.8417C25.7858 19.1125 25.2131 19.1125 24.7467 18.8417L24.7361 18.8521L20.4924 16.45V13.2771L24.3121 15.4406C25.0442 15.8573 25.9569 15.8573 26.6889 15.4406L30.5086 13.2771L33.3306 11.6854L35.0923 10.6865C36.7599 9.74267 38.7414 9.48649 40.6016 9.9742C42.4617 10.4619 44.0483 11.6536 45.0128 13.2875L45.2997 13.7771L45.5855 14.2552C46.0629 15.0651 46.3726 15.9593 46.4971 16.8867C46.6216 17.814 46.5583 18.7564 46.3109 19.6598C46.0635 20.5631 45.6368 21.4098 45.0552 22.1513C44.4737 22.8929 43.7487 23.5137 42.9218 23.9802Z" stroke="black" stroke-linecap="round" stroke-linejoin="round"/>
<path d="M31.2715 22.649L35.4312 25L31.2715 27.351C30.7944 27.6219 30.5076 28.1104 30.5076 28.6406V33.5615L26.2639 31.1583H26.2533C25.7858 30.8875 25.2131 30.8875 24.7467 31.1583L24.7361 31.1479L20.4924 33.551V28.6406C20.4924 28.1094 20.2056 27.6219 19.7274 27.351L15.5699 25L19.7296 22.649C20.2077 22.3781 20.4935 21.8896 20.4935 21.3594V16.4479L24.7371 18.851L24.7477 18.8406C25.2152 19.1115 25.7879 19.1115 26.2544 18.8406L26.265 18.851L30.5086 16.4479V21.3583C30.5086 21.8896 30.7955 22.3781 31.2736 22.6479M41.3525 21.651L38.2744 23.3875L34.5185 21.2656C34.1578 21.0605 33.8583 20.7662 33.6499 20.4122C33.4415 20.0581 33.3314 19.6567 33.3306 19.2479V14.8479L36.3439 13.1417C37.4104 12.538 38.6778 12.3742 39.8675 12.6863C41.0571 12.9985 42.0717 13.761 42.6881 14.8063L43.0493 15.4198C43.3556 15.9381 43.5547 16.5106 43.6351 17.1044C43.7156 17.6982 43.6758 18.3018 43.5181 18.8805C43.3604 19.4593 43.0879 20.0019 42.7161 20.4773C42.3443 20.9526 41.8816 21.3515 41.3525 21.651ZM17.6694 14.8479V19.2479C17.6694 20.0802 17.2125 20.849 16.4815 21.2656L12.7256 23.3875L9.64856 21.65C9.11945 21.3519 8.65547 20.9545 8.28317 20.4805C7.91087 20.0065 7.63756 19.4651 7.47887 18.8874C7.32019 18.3097 7.27924 17.707 7.35838 17.1138C7.43751 16.5206 7.63518 15.9485 7.94006 15.4302L8.30131 14.8156C8.60634 14.2965 9.01271 13.8414 9.4972 13.4763C9.98169 13.1112 10.5348 12.8433 11.125 12.6878C11.7151 12.5324 12.3307 12.4924 12.9366 12.5703C13.5425 12.6482 14.1268 12.8423 14.6561 13.1417L17.6694 14.8479ZM30.5076 36.7229V40.0521C30.5087 41.259 30.0209 42.417 29.1514 43.2714C28.2819 44.1258 27.1019 44.6067 25.8708 44.6083H25.1387C24.5285 44.6083 23.9242 44.4905 23.3604 44.2615C22.7967 44.0325 22.2844 43.6969 21.8529 43.2738C21.4215 42.8507 21.0792 42.3484 20.8458 41.7956C20.6124 41.2428 20.4923 40.6504 20.4924 40.0521V36.7229L24.3121 34.5594C24.6752 34.3599 25.0844 34.2552 25.5005 34.2552C25.9167 34.2552 26.3259 34.3599 26.6889 34.5594L30.5076 36.7229Z" stroke="black" stroke-linecap="round" stroke-linejoin="round"/>
<path d="M45.5855 35.7458L45.2986 36.2239L45.0117 36.7135C44.0471 38.3472 42.4604 39.5387 40.6003 40.0262C38.7401 40.5137 36.7587 40.2574 35.0912 39.3135L33.3306 38.3146V35.1521L36.3439 36.8583C37.4095 37.4612 38.6754 37.6256 39.8644 37.3156C41.0534 37.0056 42.0687 36.2464 42.6881 35.2042L43.0493 34.5802C43.3554 34.0619 43.5544 33.4895 43.6347 32.8958C43.7151 32.3021 43.6753 31.6987 43.5176 31.1201C43.3599 30.5414 43.0874 29.999 42.7157 29.5236C42.3441 29.0483 41.8804 28.6495 41.3514 28.35L38.2744 26.6125L35.4312 25L31.2715 22.6489C31.0395 22.5191 30.8467 22.3314 30.7125 22.105C30.5783 21.8785 30.5076 21.6213 30.5076 21.3594V16.4479L33.3306 14.8469V19.2469C33.3306 20.0792 33.7875 20.8479 34.5185 21.2646L38.2744 23.3864L41.1187 25L42.9229 26.0198C43.7497 26.4863 44.4745 27.1081 45.056 27.8496C45.6374 28.591 46.064 29.4376 46.3114 30.3408C46.5588 31.2441 46.6221 32.1863 46.4978 33.1136C46.3734 34.0408 46.0637 34.9349 45.5866 35.7448L45.5855 35.7458Z" stroke="black" stroke-linecap="round" stroke-linejoin="round"/>
<path d="M35.4312 25L31.2715 27.351C30.7944 27.6219 30.5076 28.1104 30.5076 28.6406V33.5615L26.2639 31.1583H26.2533C25.7858 30.8875 25.2131 30.8875 24.7467 31.1583L24.7361 31.1479L20.4924 33.551V28.6406C20.4924 28.1094 20.2056 27.6219 19.7274 27.351L15.5699 25L19.7296 22.649C20.2077 22.3781 20.4935 21.8896 20.4935 21.3594V16.4479L24.7371 18.851L24.7478 18.8406C25.2153 19.1115 25.7879 19.1115 26.2544 18.8406L26.265 18.851L30.5086 16.4479V21.3583C30.5086 21.8896 30.7955 22.3781 31.2736 22.6479L35.4312 25ZM41.3525 21.651L38.2744 23.3875L34.5185 21.2656C34.1578 21.0605 33.8583 20.7662 33.6499 20.4122C33.4415 20.0581 33.3314 19.6567 33.3306 19.2479V14.8479L36.3439 13.1417C37.4104 12.538 38.6778 12.3742 39.8675 12.6863C41.0571 12.9985 42.0717 13.761 42.6881 14.8063L43.0493 15.4198C43.3556 15.9381 43.5547 16.5106 43.6351 17.1044C43.7156 17.6982 43.6758 18.3018 43.5181 18.8805C43.3604 19.4593 43.0879 20.0019 42.7161 20.4773C42.3443 20.9526 41.8817 21.3515 41.3525 21.651Z" stroke="black" stroke-linecap="round" stroke-linejoin="round"/>
<path d="M25.5 25.7812C25.9401 25.7812 26.2969 25.4315 26.2969 25C26.2969 24.5685 25.9401 24.2188 25.5 24.2188C25.0599 24.2188 24.7031 24.5685 24.7031 25C24.7031 25.4315 25.0599 25.7812 25.5 25.7812Z" fill="black"/>
</svg>
